<svg xmlns="http://www.w3.org/2000/svg" style="display: none;">
  <symbol id="home" viewBox="0 0 24 24">
    <path d="M10 20v-6h4v6h5v-8h3L12 3 2 12h3v8z"/>
  </symbol>
  <symbol id="user" viewBox="0 0 24 24">
    <path d="M12 12c2.21 0 4-1.79 4-4s-1.79-4-4-4-4 1.79-4 4 1.79 4 4 4zm0 2c-2.67 0-8 1.34-8 4v2h16v-2c0-2.66-5.33-4-8-4z"/>
  </symbol>
  <symbol id="mail" viewBox="0 0 24 24">
    <path d="M20 4H4c-1.1 0-1.99.9-1.99 2L2 18c0 1.1.9 2 2 2h16c1.1 0 2-.9 2-2V6c0-1.1-.9-2-2-2zm0 4l-8 5-8-5V6l8 5 8-5v2z"/>
  </symbol>
  <symbol id="phone" viewBox="0 0 24 24">
    <path d="M6.62 10.79c1.44 2.83 3.76 5.14 6.59 6.59l2.2-2.2c.27-.27.67-.36 1.02-.24 1.12.37 2.33.57 3.57.57.55 0 1 .45 1 1V20c0 .55-.45 1-1 1-9.39 0-17-7.61-17-17 0-.55.45-1 1-1h3.5c.55 0 1 .45 1 1 0 1.25.2 2.45.57 3.57.11.35.03.74-.25 1.02l-2.2 2.2z"/>
  </symbol>
  <symbol id="search" viewBox="0 0 24 24">
    <path d="M15.5 14h-.79l-.28-.27C15.41 12.59 16 11.11 16 9.5 16 5.91 13.09 3 9.5 3S3 5.91 3 9.5 5.91 16 9.5 16c1.61 0 3.09-.59 4.23-1.57l.27.28v.79l5 4.99L20.49 19l-4.99-5zm-6 0C7.01 14 5 11.99 5 9.5S7.01 5 9.5 5 14 7.01 14 9.5 11.99 14 9.5 14z"/>
  </symbol>
  <symbol id="menu" viewBox="0 0 24 24">
    <path d="M3 18h18v-2H3v2zm0-5h18v-2H3v2zm0-7v2h18V6H3z"/>
  </symbol>
  <symbol id="close" viewBox="0 0 24 24">
    <path d="M19 6.41L17.59 5 12 10.59 6.41 5 5 6.41 10.59 12 5 17.59 6.41 19 12 13.41 17.59 19 19 17.59 13.41 12z"/>
  </symbol>
  <symbol id="arrow" viewBox="0 0 24 24">
    <path d="M8.59 16.59L13.17 12 8.59 7.41 10 6l6 6-6 6-1.41-1.41z"/>
  </symbol>
  <symbol id="star" viewBox="0 0 24 24">
    <path d="M12 17.27L18.18 21l-1.64-7.03L22 9.24l-7.19-.61L12 2 9.19 8.63 2 9.24l5.46 4.73L5.82 21z"/>
  </symbol>
  
  <symbol id="logo" viewBox="0 0 64 64">
    <circle cx="32" cy="32" r="30" stroke="currentColor" stroke-width="4" fill="none"/>
    <path d="M19.584 40V23.2H26.88C27.936 23.2 28.856 23.384 29.64 23.752C30.424 24.12 31.032 24.64 31.464 25.312C31.896 25.984 32.112 26.776 32.112 27.688V27.976C32.112 28.984 31.872 29.8 31.392 30.424C30.912 31.048 30.32 31.504 29.616 31.792V32.224C30.256 32.256 30.752 32.48 31.104 32.896C31.456 33.296 31.632 33.832 31.632 34.504V40H28.464V34.96C28.464 34.576 28.36 34.264 28.152 34.024C27.96 33.784 27.632 33.664 27.168 33.664H22.752V40H19.584ZM22.752 30.784H26.544C27.296 30.784 27.88 30.584 28.296 30.184C28.728 29.768 28.944 29.224 28.944 28.552V28.312C28.944 27.64 28.736 27.104 28.32 26.704C27.904 26.288 27.312 26.08 26.544 26.08H22.752V30.784ZM34.7481 40V23.2H37.9161V37.12H45.5961V40H34.7481Z" fill="#5C7995"/>
  </symbol>

  <symbol id="bag" viewBox="0 0 18 18">
    <path d="M9 1.125C9.74592 1.125 10.4613 1.42132 10.9887 1.94876C11.5162 2.47621 11.8125 3.19158 11.8125 3.9375V4.5H6.1875V3.9375C6.1875 3.19158 6.48382 2.47621 7.01126 1.94876C7.53871 1.42132 8.25408 1.125 9 1.125ZM12.9375 4.5V3.9375C12.9375 2.89321 12.5227 1.89169 11.7842 1.15327C11.0458 0.414843 10.0443 0 9 0C7.95571 0 6.95419 0.414843 6.21577 1.15327C5.47734 1.89169 5.0625 2.89321 5.0625 3.9375V4.5H1.125V15.75C1.125 16.3467 1.36205 16.919 1.78401 17.341C2.20597 17.7629 2.77826 18 3.375 18H14.625C15.2217 18 15.794 17.7629 16.216 17.341C16.6379 16.919 16.875 16.3467 16.875 15.75V4.5H12.9375ZM2.25 5.625H15.75V15.75C15.75 16.0484 15.6315 16.3345 15.4205 16.5455C15.2095 16.7565 14.9234 16.875 14.625 16.875H3.375C3.07663 16.875 2.79048 16.7565 2.5795 16.5455C2.36853 16.3345 2.25 16.0484 2.25 15.75V5.625Z" fill="currentColor"/>
  </symbol>
  <symbol id="bag-plus" viewBox="0 0 24 24">
    <path fill-rule="evenodd" clip-rule="evenodd" d="M8 7.5C8.13261 7.5 8.25979 7.55268 8.35355 7.64645C8.44732 7.74021 8.5 7.86739 8.5 8V9.5H10C10.1326 9.5 10.2598 9.55268 10.3536 9.64645C10.4473 9.74021 10.5 9.86739 10.5 10C10.5 10.1326 10.4473 10.2598 10.3536 10.3536C10.2598 10.4473 10.1326 10.5 10 10.5H8.5V12C8.5 12.1326 8.44732 12.2598 8.35355 12.3536C8.25979 12.4473 8.13261 12.5 8 12.5C7.86739 12.5 7.74021 12.4473 7.64645 12.3536C7.55268 12.2598 7.5 12.1326 7.5 12V10.5H6C5.86739 10.5 5.74021 10.4473 5.64645 10.3536C5.55268 10.2598 5.5 10.1326 5.5 10C5.5 9.86739 5.55268 9.74021 5.64645 9.64645C5.74021 9.55268 5.86739 9.5 6 9.5H7.5V8C7.5 7.86739 7.55268 7.74021 7.64645 7.64645C7.74021 7.55268 7.86739 7.5 8 7.5Z" fill="currentColor"/>
    <path d="M8 1C8.66304 1 9.29893 1.26339 9.76777 1.73223C10.2366 2.20107 10.5 2.83696 10.5 3.5V4H5.5V3.5C5.5 2.83696 5.76339 2.20107 6.23223 1.73223C6.70107 1.26339 7.33696 1 8 1ZM11.5 4V3.5C11.5 2.57174 11.1313 1.6815 10.4749 1.02513C9.8185 0.368749 8.92826 0 8 0C7.07174 0 6.1815 0.368749 5.52513 1.02513C4.86875 1.6815 4.5 2.57174 4.5 3.5V4H1V14C1 14.5304 1.21071 15.0391 1.58579 15.4142C1.96086 15.7893 2.46957 16 3 16H13C13.5304 16 14.0391 15.7893 14.4142 15.4142C14.7893 15.0391 15 14.5304 15 14V4H11.5ZM2 5H14V14C14 14.2652 13.8946 14.5196 13.7071 14.7071C13.5196 14.8946 13.2652 15 13 15H3C2.73478 15 2.48043 14.8946 2.29289 14.7071C2.10536 14.5196 2 14.2652 2 14V5Z" fill="currentColor"/>
  </symbol>

  <symbol id="dropdown" viewBox="0 0 16 8">
    <path d="M0.0782509 0.429079C0.148478 0.301257 0.26235 0.192758 0.406166 0.116636C0.549982 0.0405145 0.717617 1.13436e-05 0.888904 -6.34505e-07L15.1109 -1.28418e-08C15.2822 -3.74995e-05 15.4499 0.0404429 15.5938 0.116568C15.7377 0.192693 15.8516 0.301218 15.9219 0.429079C15.9921 0.556941 16.0157 0.69869 15.9898 0.837263C15.9639 0.975836 15.8895 1.10533 15.7758 1.21015L8.66477 7.75542C8.58138 7.83233 8.479 7.89389 8.36439 7.93604C8.24978 7.9782 8.12555 8 7.9999 8C7.87424 8 7.75001 7.9782 7.6354 7.93604C7.5208 7.89389 7.41842 7.83233 7.33502 7.75542L0.224027 1.21015C0.110309 1.1053 0.0360479 0.975796 0.0101852 0.837223C-0.0156765 0.698651 0.00795934 0.556917 0.0782509 0.429079Z" fill="currentColor"/>
  </symbol>

  <symbol id="trash" viewBox="0 0 24 24" fill="none">
    <path d="M7.6 6.4V9.4M2.1 3.4H10.9L10.031 11.932C10.0012 12.2256 9.87319 12.4969 9.67144 12.694C9.46969 12.8911 9.2084 13 8.9376 13H4.0624C3.7916 13 3.53031 12.8911 3.32856 12.694C3.12681 12.4969 2.99879 12.2256 2.969 11.932L2.1 3.4ZM3.93975 1.6882C4.02871 1.48238 4.16949 1.3084 4.34565 1.18655C4.52182 1.06469 4.72611 0.999997 4.9347 1H8.0653C8.27398 0.999884 8.47839 1.06453 8.65467 1.18639C8.83094 1.30824 8.9718 1.48229 9.0608 1.6882L9.8 3.4H3.2L3.93975 1.6882V1.6882ZM1 3.4H12H1ZM5.4 6.4V9.4V6.4Z" stroke="currentColor" stroke-width="0.7" stroke-linecap="round" stroke-linejoin="round"/>
  </symbol>

  <symbol id="coupon" viewBox="0 0 18 14">
    <path d="M1.33325 6.33333V2.66667C1.33325 2.48986 1.40349 2.32029 1.52851 2.19526C1.65354 2.07024 1.82311 2 1.99992 2H13.9999C14.1767 2 14.3463 2.07024 14.4713 2.19526C14.5963 2.32029 14.6666 2.48986 14.6666 2.66667V6.33333C14.2246 6.33333 13.8006 6.50893 13.4881 6.82149C13.1755 7.13405 12.9999 7.55797 12.9999 8C12.9999 8.44203 13.1755 8.86595 13.4881 9.17851C13.8006 9.49107 14.2246 9.66667 14.6666 9.66667V13.3333C14.6666 13.5101 14.5963 13.6797 14.4713 13.8047C14.3463 13.9298 14.1767 14 13.9999 14H1.99992C1.82311 14 1.65354 13.9298 1.52851 13.8047C1.40349 13.6797 1.33325 13.5101 1.33325 13.3333V9.66667C1.77528 9.66667 2.1992 9.49107 2.51176 9.17851C2.82432 8.86595 2.99992 8.44203 2.99992 8C2.99992 7.55797 2.82432 7.13405 2.51176 6.82149C2.1992 6.50893 1.77528 6.33333 1.33325 6.33333ZM9.33325 3.33333H2.66659V5.312C3.16739 5.5602 3.5889 5.94337 3.88359 6.41831C4.17828 6.89324 4.33442 7.44107 4.33442 8C4.33442 8.55894 4.17828 9.10676 3.88359 9.58169C3.5889 10.0566 3.16739 10.4398 2.66659 10.688V12.6667H9.33325V3.33333ZM10.6666 3.33333V12.6667H13.3333V10.688C12.8324 10.4398 12.4109 10.0566 12.1162 9.58169C11.8216 9.10676 11.6654 8.55894 11.6654 8C11.6654 7.44107 11.8216 6.89324 12.1162 6.41831C12.4109 5.94337 12.8324 5.5602 13.3333 5.312V3.33333H10.6666Z" fill="currentColor"/>
  </symbol>

  <!-- carts -->
  <symbol id="cart" viewBox="0 0 27 24">
    <path d="M0 0.857143C0 0.629814 0.094822 0.411797 0.263606 0.251051C0.432391 0.090306 0.661311 0 0.900008 0H3.60003C3.80079 5.28197e-05 3.99577 0.0640297 4.15395 0.181757C4.31214 0.299484 4.42446 0.464201 4.47304 0.649714L5.20205 3.42857H26.1002C26.2369 3.42861 26.3719 3.4583 26.4947 3.5154C26.6176 3.57251 26.7252 3.65551 26.8093 3.75813C26.8935 3.86074 26.952 3.98026 26.9804 4.10761C27.0088 4.23497 27.0063 4.36681 26.9732 4.49314L24.2732 14.7789C24.2246 14.9644 24.1123 15.1291 23.9541 15.2468C23.7959 15.3645 23.601 15.4285 23.4002 15.4286H7.20007C6.99931 15.4285 6.80433 15.3645 6.64614 15.2468C6.48796 15.1291 6.37564 14.9644 6.32706 14.7789L2.89803 1.71429H0.900008C0.661311 1.71429 0.432391 1.62398 0.263606 1.46323C0.094822 1.30249 0 1.08447 0 0.857143ZM5.65205 5.14286L7.90207 13.7143H22.6982L24.9482 5.14286H5.65205ZM9.00008 18.8571C8.52269 18.8571 8.06485 19.0378 7.72728 19.3592C7.38971 19.6807 7.20007 20.1168 7.20007 20.5714C7.20007 21.0261 7.38971 21.4621 7.72728 21.7836C8.06485 22.1051 8.52269 22.2857 9.00008 22.2857C9.47748 22.2857 9.93532 22.1051 10.2729 21.7836C10.6105 21.4621 10.8001 21.0261 10.8001 20.5714C10.8001 20.1168 10.6105 19.6807 10.2729 19.3592C9.93532 19.0378 9.47748 18.8571 9.00008 18.8571ZM5.40005 20.5714C5.40005 19.6621 5.77934 18.79 6.45447 18.1471C7.12961 17.5041 8.04529 17.1429 9.00008 17.1429C9.95487 17.1429 10.8706 17.5041 11.5457 18.1471C12.2208 18.79 12.6001 19.6621 12.6001 20.5714C12.6001 21.4807 12.2208 22.3528 11.5457 22.9958C10.8706 23.6388 9.95487 24 9.00008 24C8.04529 24 7.12961 23.6388 6.45447 22.9958C5.77934 22.3528 5.40005 21.4807 5.40005 20.5714ZM21.6002 18.8571C21.1228 18.8571 20.665 19.0378 20.3274 19.3592C19.9898 19.6807 19.8002 20.1168 19.8002 20.5714C19.8002 21.0261 19.9898 21.4621 20.3274 21.7836C20.665 22.1051 21.1228 22.2857 21.6002 22.2857C22.0776 22.2857 22.5354 22.1051 22.873 21.7836C23.2106 21.4621 23.4002 21.0261 23.4002 20.5714C23.4002 20.1168 23.2106 19.6807 22.873 19.3592C22.5354 19.0378 22.0776 18.8571 21.6002 18.8571ZM18.0002 20.5714C18.0002 19.6621 18.3795 18.79 19.0546 18.1471C19.7297 17.5041 20.6454 17.1429 21.6002 17.1429C22.555 17.1429 23.4707 17.5041 24.1458 18.1471C24.8209 18.79 25.2002 19.6621 25.2002 20.5714C25.2002 21.4807 24.8209 22.3528 24.1458 22.9958C23.4707 23.6388 22.555 24 21.6002 24C20.6454 24 19.7297 23.6388 19.0546 22.9958C18.3795 22.3528 18.0002 21.4807 18.0002 20.5714Z" fill="currentColor"/>
  </symbol>
  <symbol id="cart-plus" viewBox="0 0 16 16">
    <path d="M9 5.5C9 5.36739 8.94732 5.24021 8.85355 5.14645C8.75979 5.05268 8.63261 5 8.5 5C8.36739 5 8.24021 5.05268 8.14645 5.14645C8.05268 5.24021 8 5.36739 8 5.5V7H6.5C6.36739 7 6.24021 7.05268 6.14645 7.14645C6.05268 7.24021 6 7.36739 6 7.5C6 7.63261 6.05268 7.75979 6.14645 7.85355C6.24021 7.94732 6.36739 8 6.5 8H8V9.5C8 9.63261 8.05268 9.75979 8.14645 9.85355C8.24021 9.94732 8.36739 10 8.5 10C8.63261 10 8.75979 9.94732 8.85355 9.85355C8.94732 9.75979 9 9.63261 9 9.5V8H10.5C10.6326 8 10.7598 7.94732 10.8536 7.85355C10.9473 7.75979 11 7.63261 11 7.5C11 7.36739 10.9473 7.24021 10.8536 7.14645C10.7598 7.05268 10.6326 7 10.5 7H9V5.5Z" fill="currentColor"/>
    <path d="M0.5 1C0.367392 1 0.240215 1.05268 0.146447 1.14645C0.0526784 1.24021 0 1.36739 0 1.5C0 1.63261 0.0526784 1.75979 0.146447 1.85355C0.240215 1.94732 0.367392 2 0.5 2H1.61L2.011 3.607L3.509 11.592C3.53045 11.7066 3.59126 11.8101 3.68091 11.8846C3.77057 11.9591 3.88343 11.9999 4 12H5C4.46957 12 3.96086 12.2107 3.58579 12.5858C3.21071 12.9609 3 13.4696 3 14C3 14.5304 3.21071 15.0391 3.58579 15.4142C3.96086 15.7893 4.46957 16 5 16C5.53043 16 6.03914 15.7893 6.41421 15.4142C6.78929 15.0391 7 14.5304 7 14C7 13.4696 6.78929 12.9609 6.41421 12.5858C6.03914 12.2107 5.53043 12 5 12H12C11.4696 12 10.9609 12.2107 10.5858 12.5858C10.2107 12.9609 10 13.4696 10 14C10 14.5304 10.2107 15.0391 10.5858 15.4142C10.9609 15.7893 11.4696 16 12 16C12.5304 16 13.0391 15.7893 13.4142 15.4142C13.7893 15.0391 14 14.5304 14 14C14 13.4696 13.7893 12.9609 13.4142 12.5858C13.0391 12.2107 12.5304 12 12 12H13C13.1166 11.9999 13.2294 11.9591 13.3191 11.8846C13.4087 11.8101 13.4696 11.7066 13.491 11.592L14.991 3.592C15.0045 3.51984 15.002 3.44558 14.9835 3.37452C14.9651 3.30345 14.9313 3.23731 14.8844 3.1808C14.8375 3.12429 14.7788 3.0788 14.7124 3.04755C14.6459 3.0163 14.5734 3.00007 14.5 3H2.89L2.485 1.379C2.45801 1.27078 2.39561 1.1747 2.30773 1.10602C2.21985 1.03735 2.11153 1.00003 2 1H0.5ZM4.415 11L3.102 4H13.898L12.585 11H4.415ZM6 14C6 14.2652 5.89464 14.5196 5.70711 14.7071C5.51957 14.8946 5.26522 15 5 15C4.73478 15 4.48043 14.8946 4.29289 14.7071C4.10536 14.5196 4 14.2652 4 14C4 13.7348 4.10536 13.4804 4.29289 13.2929C4.48043 13.1054 4.73478 13 5 13C5.26522 13 5.51957 13.1054 5.70711 13.2929C5.89464 13.4804 6 13.7348 6 14ZM13 14C13 14.2652 12.8946 14.5196 12.7071 14.7071C12.5196 14.8946 12.2652 15 12 15C11.7348 15 11.4804 14.8946 11.2929 14.7071C11.1054 14.5196 11 14.2652 11 14C11 13.7348 11.1054 13.4804 11.2929 13.2929C11.4804 13.1054 11.7348 13 12 13C12.2652 13 12.5196 13.1054 12.7071 13.2929C12.8946 13.4804 13 13.7348 13 14Z" fill="currentColor"/>
  </symbol>

  <symbol id="info" viewBox="0 0 16 16">
    <path d="M8 15C4.13438 15 1 11.8656 1 8C1 4.13437 4.13438 1 8 1C11.8656 1 15 4.13437 15 8C15 11.8656 11.8656 15 8 15ZM8 2.1875C4.79063 2.1875 2.1875 4.79062 2.1875 8C2.1875 11.2094 4.79063 13.8125 8 13.8125C11.2094 13.8125 13.8125 11.2094 13.8125 8C13.8125 4.79062 11.2094 2.1875 8 2.1875Z" fill="currentColor"/>
    <path d="M7.25 10.75C7.25 10.5511 7.32902 10.3603 7.46967 10.2197C7.61032 10.079 7.80109 10 8 10C8.19891 10 8.38968 10.079 8.53033 10.2197C8.67098 10.3603 8.75 10.5511 8.75 10.75C8.75 10.9489 8.67098 11.1397 8.53033 11.2803C8.38968 11.421 8.19891 11.5 8 11.5C7.80109 11.5 7.61032 11.421 7.46967 11.2803C7.32902 11.1397 7.25 10.9489 7.25 10.75ZM8.375 9H7.625C7.55625 9 7.5 8.94375 7.5 8.875V4.625C7.5 4.55625 7.55625 4.5 7.625 4.5H8.375C8.44375 4.5 8.5 4.55625 8.5 4.625V8.875C8.5 8.94375 8.44375 9 8.375 9Z" fill="currentColor"/>
  </symbol>
  <symbol id="heart" viewBox="0 0 32 32">
    <path d="M5.28201 6.77C6.60682 5.70806 8.27469 5.16809 9.9705 5.25211C11.6663 5.33612 13.2726 6.03831 14.486 7.226L16.0007 8.708L17.5113 7.228C18.7246 6.03948 20.3312 5.33659 22.0274 5.2522C23.7237 5.16781 25.3921 5.70776 26.7173 6.77C29.9507 9.36133 30.212 14.19 27.2753 17.114L16.5887 27.7567C16.4325 27.9122 16.2211 27.9995 16.0007 27.9995C15.7803 27.9995 15.5689 27.9122 15.4127 27.7567L4.72467 17.1133C1.78801 14.1893 2.04801 9.36133 5.28201 6.76933V6.77ZM13.32 8.41667C12.3978 7.51385 11.1768 6.98008 9.88777 6.91621C8.59876 6.85233 7.331 7.26278 6.32401 8.07C3.86667 10.04 3.66867 13.71 5.90067 15.9333L16 25.9907L26.0987 15.9327C28.3307 13.71 28.132 10.04 25.6747 8.07067C24.6674 7.26339 23.3993 6.85304 22.11 6.91716C20.8207 6.98128 19.5996 7.51543 18.6773 8.41867L16.5833 10.47C16.4276 10.6227 16.2181 10.7082 16 10.7082C15.7819 10.7082 15.5724 10.6227 15.4167 10.47L13.3193 8.41667H13.32Z" fill="currentColor"/>
  </symbol>
  <symbol id="heart-plus" viewBox="0 0 32 32">
    <path d="M12.536 19.0053L12 19.4868L10.84 18.4447C6.72 14.7579 4 12.3184 4 9.34211C4 6.90263 5.936 5 8.4 5C9.792 5 11.128 5.63947 12 6.64211C12.872 5.63947 14.208 5 15.6 5C18.064 5 20 6.90263 20 9.34211C20 10.4711 19.6 11.5211 18.896 12.5868C18.4 12.35 17.848 12.1921 17.272 12.1368C18 11.1579 18.4 10.25 18.4 9.34211C18.4 7.76316 17.2 6.57895 15.6 6.57895C14.368 6.57895 13.168 7.36842 12.744 8.44211H11.256C10.832 7.36842 9.632 6.57895 8.4 6.57895C6.8 6.57895 5.6 7.76316 5.6 9.34211C5.6 11.6237 8.112 13.8737 11.912 17.2763L12 17.3553L12.032 17.3237C12.096 17.9237 12.272 18.4921 12.536 19.0053ZM16 13.6842V16.0526H13.6V17.6316H16V20H17.6V17.6316H20V16.0526H17.6V13.6842H16Z" fill="currentColor"/>
  </symbol>

  <symbol id="search" viewBox="0 0 24 24">
    <g opacity="0.5">
      <path fill-rule="evenodd" clip-rule="evenodd" d="M16.325 14.899L21.705 20.279C21.8941 20.4682 22.0003 20.7248 22.0002 20.9923C22.0001 21.2599 21.8937 21.5164 21.7045 21.7055C21.5153 21.8946 21.2587 22.0008 20.9912 22.0007C20.7236 22.0006 20.4671 21.8942 20.278 21.705L14.898 16.325C13.2897 17.5707 11.2673 18.1569 9.24214 17.9643C7.21699 17.7718 5.34124 16.815 3.99649 15.2886C2.65174 13.7622 1.939 11.7808 2.00326 9.74753C2.06753 7.71427 2.90396 5.78185 4.34242 4.34339C5.78087 2.90494 7.71329 2.0685 9.74656 2.00424C11.7798 1.93998 13.7612 2.65272 15.2876 3.99747C16.814 5.34222 17.7708 7.21796 17.9634 9.24312C18.1559 11.2683 17.5697 13.2907 16.324 14.899H16.325ZM10 16C11.5913 16 13.1174 15.3678 14.2427 14.2426C15.3679 13.1174 16 11.5913 16 9.99999C16 8.40869 15.3679 6.88257 14.2427 5.75735C13.1174 4.63213 11.5913 3.99999 10 3.99999C8.40871 3.99999 6.88259 4.63213 5.75737 5.75735C4.63215 6.88257 4.00001 8.40869 4.00001 9.99999C4.00001 11.5913 4.63215 13.1174 5.75737 14.2426C6.88259 15.3678 8.40871 16 10 16Z" fill="currentColor"/>
    </g>
  </symbol>
  <symbol id="star-fill" viewBox="0 0 16 16">
    <g clip-path="url(#clip0_409_230)">
      <path d="M3.61212 15.443C3.22612 15.641 2.78812 15.294 2.86612 14.851L3.69612 10.121L0.173118 6.76501C-0.155882 6.45101 0.0151183 5.87701 0.456118 5.81501L5.35412 5.11901L7.53812 0.792012C7.73512 0.402012 8.26812 0.402012 8.46512 0.792012L10.6491 5.11901L15.5471 5.81501C15.9881 5.87701 16.1591 6.45101 15.8291 6.76501L12.3071 10.121L13.1371 14.851C13.2151 15.294 12.7771 15.641 12.3911 15.443L8.00012 13.187L3.61112 15.443H3.61212Z" fill="currentColor"/>
    </g>
    <defs>
      <clipPath id="clip0_409_230">
        <rect width="16" height="16" fill="white"/>
      </clipPath>
    </defs>
  </symbol>
  <symbol id="star-half" viewBox="0 0 16 16">
    <g clip-path="url(#clip0_409_232)">
      <path d="M5.35399 5.119L7.53799 0.792C7.57993 0.704954 7.64547 0.631433 7.72715 0.57981C7.80883 0.528186 7.90336 0.500533 7.99999 0.5C8.18299 0.5 8.36599 0.597 8.46499 0.792L10.649 5.119L15.547 5.815C15.6691 5.83419 15.7808 5.89491 15.8633 5.98691C15.9459 6.07891 15.9941 6.19655 16 6.32C16.007 6.40219 15.9953 6.48489 15.9659 6.56194C15.9364 6.63899 15.89 6.7084 15.83 6.765L12.307 10.121L13.137 14.851C13.215 15.294 12.777 15.641 12.391 15.443L7.99999 13.187L3.61099 15.443C3.56508 15.4668 3.51587 15.4837 3.46499 15.493C3.12299 15.553 2.79699 15.239 2.86499 14.851L3.69499 10.121L0.172988 6.765C0.118233 6.7132 0.0747109 6.65069 0.0451227 6.58137C0.0155346 6.51204 0.000511966 6.43737 0.00098751 6.362C0.00103952 6.25544 0.0304489 6.15095 0.0859875 6.06C0.125386 5.99407 0.179086 5.93783 0.243125 5.89542C0.307164 5.85302 0.379908 5.82553 0.455988 5.815L5.35399 5.119ZM7.99999 12.027C8.08071 12.0267 8.16031 12.0459 8.23199 12.083L11.918 13.977L11.224 10.02C11.2076 9.929 11.2138 9.83536 11.2421 9.74731C11.2703 9.65926 11.3197 9.57949 11.386 9.515L14.293 6.745L10.241 6.169C10.1571 6.15633 10.0775 6.12351 10.0091 6.07335C9.94061 6.02319 9.88534 5.95719 9.84799 5.881L8.00099 2.223L7.99999 2.226V12.026V12.027Z" fill="currentColor"/>
    </g>
    <defs>
      <clipPath id="clip0_409_232">
      <rect width="16" height="16" fill="white"/>
      </clipPath>
    </defs>
  </symbol>
  <symbol id="star-empty" viewBox="0 0 16 16">
    <g clip-path="url(#clip0_409_228)">
      <path d="M2.86612 14.85C2.78812 15.294 3.22612 15.641 3.61212 15.443L8.00212 13.187L12.3911 15.443C12.7771 15.641 13.2151 15.294 13.1371 14.851L12.3071 10.121L15.8291 6.76498C16.1591 6.45098 15.9891 5.87698 15.5471 5.81498L10.6491 5.11898L8.46512 0.791984C8.42351 0.704273 8.35787 0.630167 8.27583 0.578276C8.19378 0.526386 8.0987 0.49884 8.00162 0.49884C7.90454 0.49884 7.80945 0.526386 7.72741 0.578276C7.64536 0.630167 7.57972 0.704273 7.53812 0.791984L5.35412 5.11998L0.456118 5.81598C0.0151183 5.87798 -0.155882 6.45198 0.173118 6.76598L3.69612 10.122L2.86612 14.852V14.85ZM7.77112 12.083L4.08512 13.977L4.77912 10.02C4.79538 9.9289 4.78902 9.83521 4.76059 9.74716C4.73217 9.6591 4.68256 9.57938 4.61612 9.51498L1.71012 6.74498L5.76212 6.16898C5.84602 6.15631 5.92561 6.12349 5.99405 6.07334C6.0625 6.02318 6.11776 5.95718 6.15512 5.88098L8.00012 2.22298L9.84712 5.88098C9.88447 5.95718 9.93974 6.02318 10.0082 6.07334C10.0766 6.12349 10.1562 6.15631 10.2401 6.16898L14.2921 6.74398L11.3861 9.51398C11.3195 9.57848 11.2698 9.65837 11.2414 9.74662C11.213 9.83486 11.2067 9.92874 11.2231 10.02L11.9171 13.977L8.23112 12.083C8.15984 12.0462 8.08081 12.0271 8.00062 12.0271C7.92043 12.0271 7.8414 12.0462 7.77012 12.083H7.77112Z" fill="currentColor"/>
    </g>
    <defs>
      <clipPath id="clip0_409_228">
        <rect width="16" height="16" fill="white"/>
      </clipPath>
    </defs>
  </symbol>

  <symbol id="google" viewBox="0 0 24 24">
    <path d="M22.56 12.25c0-.78-.07-1.53-.2-2.25H12v4.26h5.92c-.26 1.37-1.04 2.53-2.21 3.31v2.77h3.57c2.08-1.92 3.28-4.74 3.28-8.09z" fill="#4285F4"/>
    <path d="M12 23c2.97 0 5.46-.98 7.28-2.66l-3.57-2.77c-.98.66-2.23 1.06-3.71 1.06-2.86 0-5.29-1.93-6.16-4.53H2.18v2.84C3.99 20.53 7.7 23 12 23z" fill="#34A853"/>
    <path d="M5.84 14.09c-.22-.66-.35-1.36-.35-2.09s.13-1.43.35-2.09V7.07H2.18C1.43 8.55 1 10.22 1 12s.43 3.45 1.18 4.93l2.85-2.22.81-.62z" fill="#FBBC05"/>
    <path d="M12 5.38c1.62 0 3.06.56 4.21 1.64l3.15-3.15C17.45 2.09 14.97 1 12 1 7.7 1 3.99 3.47 2.18 7.07l3.66 2.84c.87-2.6 3.3-4.53 6.16-4.53z" fill="#EA4335"/>
  </symbol>

  <symbol id="sun" viewBox="0 0 512 512">
  <g id="null">
    <path d=" M 256 379.586 C 324.414 379.586 379.586 323.972 379.586 256 C 379.586 188.028 323.972 132.414 256 132.414 C 188.028 132.414 132.414 188.028 132.414 256 C 132.414 323.972 187.586 379.586 256 379.586 Z  M 256 168.166 C 304.552 168.166 343.834 207.448 343.834 256 C 343.834 304.552 304.552 343.834 256 343.834 C 207.448 343.834 168.166 304.552 168.166 256 C 168.166 207.448 207.448 168.166 256 168.166 Z " fill="currentColor"/>
    <path d=" M 274.097 75.034 L 274.097 18.097 C 274.097 7.945 266.152 0 256 0 C 245.848 0 237.903 7.945 237.903 18.097 L 237.903 75.034 C 237.903 85.186 245.848 93.131 256 93.131 C 266.152 93.131 274.097 85.186 274.097 75.034 Z " fill="currentColor"/>
    <path d=" M 237.903 436.966 L 237.903 493.903 C 237.903 504.055 245.848 512 256 512 C 266.152 512 274.097 504.055 274.097 493.903 L 274.097 436.966 C 274.097 426.814 266.152 418.869 256 418.869 C 245.848 418.869 237.903 426.814 237.903 436.966 Z " fill="currentColor"/>
    <path d=" M 396.8 140.8 L 436.966 100.634 C 444.028 93.572 444.028 82.097 436.966 75.034 C 429.903 67.972 418.428 67.972 411.366 75.034 L 371.2 115.2 C 364.138 122.262 364.138 133.738 371.2 140.8 C 374.731 144.331 379.145 146.097 384 146.097 C 388.855 146.097 393.269 144.331 396.8 140.8 L 396.8 140.8 Z " fill="currentColor"/>
    <path d=" M 75.034 436.966 C 78.566 440.497 82.979 442.262 87.834 442.262 C 92.248 442.262 97.103 440.497 100.634 436.966 L 140.8 396.8 C 147.862 389.738 147.862 378.262 140.8 371.2 C 133.738 364.138 122.262 364.138 115.2 371.2 L 75.034 411.366 C 67.972 418.428 67.972 429.903 75.034 436.966 Z " fill="currentColor"/>
    <path d=" M 512 256 C 512 245.848 504.055 237.903 493.903 237.903 L 436.966 237.903 C 426.814 237.903 418.869 245.848 418.869 256 C 418.869 266.152 426.814 274.097 436.966 274.097 L 493.903 274.097 C 503.614 274.097 512 266.152 512 256 Z " fill="currentColor"/>
    <path d=" M 18.097 274.097 L 75.034 274.097 C 85.186 274.097 93.131 266.152 93.131 256 C 93.131 245.848 85.186 237.903 75.034 237.903 L 18.097 237.903 C 7.945 237.903 0 245.848 0 256 C 0 266.152 8.386 274.097 18.097 274.097 Z " fill="currentColor"/>
    <path d=" M 424.166 442.262 C 428.579 442.262 433.434 440.497 436.966 436.966 C 444.028 429.903 444.028 418.428 436.966 411.366 L 396.8 371.2 C 389.738 364.138 378.262 364.138 371.2 371.2 C 364.138 378.262 364.138 389.738 371.2 396.8 L 411.366 436.966 C 414.897 440.497 419.752 442.262 424.166 442.262 L 424.166 442.262 Z " fill="currentColor"/>
    <path d=" M 140.8 140.8 C 147.862 133.738 147.862 122.262 140.8 115.2 L 100.634 75.034 C 93.572 67.972 82.097 67.972 75.034 75.034 C 67.972 82.097 67.972 93.572 75.034 100.634 L 115.2 140.8 C 118.731 144.331 123.145 146.097 128 146.097 C 132.855 146.097 137.269 144.331 140.8 140.8 Z " fill="currentColor"/>
  </g>
  </symbol>

  <symbol id="moon" viewBox="0 0 512 512">
    <g>
			<path d="M337.556,189.252l-5.023,29.292c-0.774,4.498,1.039,8.957,4.723,11.628c2.044,1.487,4.46,2.273,6.99,2.273
				c1.922,0,3.836-0.474,5.532-1.366l26.311-13.831l26.297,13.826c1.701,0.897,3.618,1.372,5.544,1.372
				c2.521,0,4.933-0.782,6.988-2.269c3.69-2.682,5.503-7.139,4.729-11.627l-5.024-29.297l21.284-20.748
				c3.267-3.185,4.419-7.858,3.008-12.181c-1.407-4.337-5.083-7.439-9.597-8.094l-29.416-4.275l-13.156-26.66
				c-2.018-4.083-6.102-6.62-10.656-6.62c-4.561,0-8.646,2.54-10.659,6.626l-13.157,26.655l-29.415,4.275
				c-4.506,0.654-8.182,3.752-9.598,8.092c-1.406,4.33-0.255,8.996,3.009,12.185L337.556,189.252z M358.816,159.373
				c2.639-0.383,4.919-2.04,6.1-4.431l11.173-22.637l11.171,22.636c1.178,2.391,3.46,4.048,6.099,4.431l24.984,3.631l-18.077,17.621
				c-1.908,1.861-2.78,4.541-2.33,7.169l4.267,24.881l-22.345-11.748c-1.18-0.62-2.474-0.93-3.769-0.93
				c-1.295,0-2.59,0.31-3.771,0.932l-22.344,11.746l4.266-24.88c0.451-2.628-0.42-5.309-2.329-7.17l-18.079-17.62L358.816,159.373z"
				/>
			<path d="M445.893,429.493c-8.289,0.9-16.654,1.355-24.864,1.355c-54.194,0-106.705-19.349-147.862-54.483
				c-3.402-2.904-8.516-2.499-11.419,0.902c-2.904,3.403-2.5,8.516,0.902,11.42c44.087,37.636,100.334,58.363,158.379,58.363
				c0.631,0,1.264-0.003,1.896-0.008c-41.552,31.591-92.19,48.759-144.94,48.759c-132.226,0-239.8-107.575-239.8-239.801
				c0-127.344,99.772-231.821,225.252-239.364c-54.546,46.16-86.47,114.161-86.47,186.354c0,62.645,23.698,122.196,66.728,167.687
				c3.073,3.25,8.199,3.392,11.451,0.318c3.25-3.075,3.392-8.2,0.318-11.451c-40.173-42.469-62.297-98.068-62.297-156.554
				c0-75.138,37.048-145.42,99.105-188.005c2.878-1.975,4.167-5.574,3.198-8.928c-0.969-3.354-3.98-5.71-7.468-5.845
				C284.296,0.069,281.02,0,277.986,0C209.604,0,145.317,26.629,96.966,74.98c-48.352,48.352-74.98,112.639-74.98,181.019
				s26.628,132.668,74.98,181.019C145.317,485.371,209.605,512,277.986,512c64.888,0,126.787-24.335,174.296-68.523
				c2.555-2.377,3.303-6.122,1.851-9.297C452.683,431.005,449.369,429.118,445.893,429.493z"/>
			<path d="M327.465,325.24c0,18.137,14.757,32.893,32.895,32.893c18.137,0,32.893-14.756,32.893-32.893
				c0-18.138-14.756-32.894-32.893-32.894C342.222,292.346,327.465,307.102,327.465,325.24z M377.053,325.24
				c0,9.205-7.489,16.693-16.693,16.693c-9.206,0-16.695-7.489-16.695-16.693s7.49-16.694,16.695-16.694
				S377.053,316.034,377.053,325.24z"/>
			<path d="M472.699,256.002c-9.561,0-17.313,7.75-17.313,17.314c0,9.563,7.751,17.315,17.313,17.315
				c9.565,0,17.315-7.752,17.315-17.315C490.014,263.751,482.264,256.002,472.699,256.002z"/>
		</g>
  </symbol>
</svg>
